<?xml version="1.0" encoding="UTF-8" standalone="no"?>
<!DOCTYPE svg PUBLIC "-//W3C//DTD SVG 1.1//EN" "http://www.w3.org/Graphics/SVG/1.1/DTD/svg11.dtd">
<svg width="100%" height="100%" viewBox="0 0 1000 1000" version="1.1" xmlns="http://www.w3.org/2000/svg" xmlns:xlink="http://www.w3.org/1999/xlink" xml:space="preserve" xmlns:serif="http://www.serif.com/" style="fill-rule:evenodd;clip-rule:evenodd;stroke-linejoin:round;stroke-miterlimit:2;">
    <rect id="ArtBoard1" x="0" y="0" width="1000" height="1000" style="fill:none;"/>
    <g id="ArtBoard11" serif:id="ArtBoard1">
        <g id="logo" transform="matrix(1.1154,0,0,1.1154,-56.5925,-92.166)">
            <g transform="matrix(0.984704,-0.174238,0.174238,0.984704,-6.2159,221.668)">
                <g id="Pencil" transform="matrix(0.90174,0.52062,-0.508223,0.971138,604.674,-582.706)">
                    <g>
                        <clipPath id="_clip1">
                            <path d="M597.169,467.216C597.169,430.26 565.612,400.257 526.744,400.257L482.265,400.257C443.397,400.257 411.84,430.26 411.84,467.216L411.84,915.024C411.84,951.979 443.397,981.982 482.265,981.982L526.744,981.982C565.612,981.982 597.169,951.979 597.169,915.024L597.169,467.216Z"/>
                        </clipPath>
                        <g clip-path="url(#_clip1)">
                            <g transform="matrix(1.05109,0,0,0.575064,-21.0429,625.25)">
                                <path d="M588.16,-274.812C588.16,-339.075 558.137,-391.248 521.158,-391.248L478.842,-391.248C441.863,-391.248 411.84,-339.075 411.84,-274.812L411.84,503.898C411.84,568.161 441.863,620.335 478.842,620.335L521.158,620.335C558.137,620.335 588.16,568.161 588.16,503.898L588.16,-274.812Z" style="fill:rgb(241,196,15);"/>
                            </g>
                            <rect x="360.103" y="382.239" width="312.999" height="186.358" style="fill:rgb(231,76,60);"/>
                        </g>
                    </g>
                    <g transform="matrix(1,0,0,1,-0.879279,-1.9686)">
                        <path d="M605.016,570.566C605.016,564.747 600.047,560.023 593.927,560.023L416.84,560.023C410.72,560.023 405.751,564.747 405.751,570.566C405.751,576.385 410.72,581.109 416.84,581.109L593.927,581.109C600.047,581.109 605.016,576.385 605.016,570.566Z" style="fill:rgb(149,165,166);"/>
                    </g>
                    <g transform="matrix(1,0,0,1,-0.879279,19.1176)">
                        <path d="M605.016,570.566C605.016,564.747 600.047,560.023 593.927,560.023L416.84,560.023C410.72,560.023 405.751,564.747 405.751,570.566C405.751,576.385 410.72,581.109 416.84,581.109L593.927,581.109C600.047,581.109 605.016,576.385 605.016,570.566Z" style="fill:rgb(149,165,166);"/>
                    </g>
                </g>
                <g transform="matrix(1,0,0,1,36.1955,46.4422)">
                    <circle cx="463.804" cy="685.055" r="79.103" style="fill:rgb(52,152,219);"/>
                </g>
            </g>
            <g transform="matrix(0.98787,-0.155282,0.155282,0.98787,-9.31816,136.701)">
                <g transform="matrix(1,-1.11022e-16,1.11022e-16,1,-169.519,30.1137)">
                    <circle cx="463.804" cy="685.055" r="79.103" style="fill:rgb(52,152,219);"/>
                </g>
                <g transform="matrix(872.962,-256.576,256.576,872.962,188.485,777.229)">
                    <path d="M0.181,-0.15C0.168,-0.15 0.156,-0.156 0.146,-0.166C0.136,-0.176 0.131,-0.188 0.131,-0.201C0.131,-0.223 0.152,-0.251 0.193,-0.284L0.31,-0.372C0.352,-0.408 0.373,-0.441 0.373,-0.471C0.373,-0.508 0.355,-0.543 0.32,-0.575C0.286,-0.606 0.249,-0.622 0.211,-0.622C0.19,-0.622 0.164,-0.611 0.133,-0.59C0.101,-0.569 0.082,-0.559 0.074,-0.559C0.061,-0.559 0.049,-0.564 0.04,-0.575C0.03,-0.585 0.025,-0.597 0.025,-0.611C0.025,-0.637 0.05,-0.662 0.1,-0.688C0.145,-0.71 0.182,-0.722 0.211,-0.722C0.276,-0.722 0.336,-0.696 0.389,-0.645C0.443,-0.594 0.469,-0.536 0.469,-0.471C0.469,-0.423 0.454,-0.381 0.423,-0.344C0.405,-0.322 0.371,-0.293 0.322,-0.258C0.272,-0.222 0.237,-0.193 0.218,-0.17C0.206,-0.157 0.194,-0.15 0.181,-0.15Z" style="fill:rgb(52,152,219);fill-rule:nonzero;"/>
                </g>
            </g>
        </g>
    </g>
</svg>
