<?xml version="1.0" standalone="no"?>
<!DOCTYPE svg PUBLIC "-//W3C//DTD SVG 20010904//EN"
 "http://www.w3.org/TR/2001/REC-SVG-20010904/DTD/svg10.dtd">
<svg version="1.0" xmlns="http://www.w3.org/2000/svg"
 width="320.000000pt" height="320.000000pt" viewBox="0 0 320.000000 320.000000"
 preserveAspectRatio="xMidYMid meet">
<metadata>
Created by potrace 1.11, written by Peter Selinger 2001-2013
</metadata>
<g transform="translate(0.000000,320.000000) scale(0.100000,-0.100000)"
fill="#000000" stroke="none">
<path d="M956 2933 c-6 -14 -5 -15 5 -6 7 7 10 15 7 18 -3 3 -9 -2 -12 -12z"/>
<path d="M1395 2920 c-3 -5 -1 -10 4 -10 6 0 11 5 11 10 0 6 -2 10 -4 10 -3 0
-8 -4 -11 -10z"/>
<path d="M1640 2920 c-9 -6 -10 -10 -3 -10 6 0 15 5 18 10 8 12 4 12 -15 0z"/>
<path d="M1941 2916 c-9 -11 -9 -16 0 -22 7 -4 9 -3 5 4 -3 6 2 15 11 21 10 6
13 11 7 11 -6 0 -17 -6 -23 -14z"/>
<path d="M1095 2911 c-3 -5 -2 -12 3 -15 5 -3 9 1 9 9 0 17 -3 19 -12 6z"/>
<path d="M1130 2899 c0 -5 5 -7 10 -4 6 3 10 8 10 11 0 2 -4 4 -10 4 -5 0 -10
-5 -10 -11z"/>
<path d="M1856 2902 c-3 -4 4 -9 15 -9 23 -2 25 3 4 10 -8 4 -16 3 -19 -1z"/>
<path d="M1436 2873 c-6 -14 -5 -15 5 -6 7 7 10 15 7 18 -3 3 -9 -2 -12 -12z"/>
<path d="M1553 2875 c0 -8 4 -12 9 -9 5 3 6 10 3 15 -9 13 -12 11 -12 -6z"/>
<path d="M1614 2878 c3 -10 1 -20 -4 -23 -6 -4 -10 0 -10 7 0 10 -2 10 -8 1
-8 -12 -29 -13 -49 0 -6 4 -14 1 -16 -5 -4 -10 -8 -9 -16 2 -10 13 -11 13 -11
0 0 -13 -1 -13 -10 0 -7 11 -12 12 -18 3 -8 -12 -29 -13 -49 0 -6 4 -14 1 -16
-5 -4 -10 -8 -9 -16 2 -10 13 -11 13 -11 0 0 -13 -1 -13 -10 0 -6 9 -13 11
-17 5 -11 -14 -143 -14 -143 0 0 5 -4 4 -9 -3 -4 -8 -12 -14 -16 -14 -4 0 -12
6 -16 14 -5 7 -9 8 -9 2 0 -14 -30 -14 -30 0 0 7 -3 7 -8 1 -9 -12 -52 -15
-52 -3 0 5 -9 4 -20 -2 -13 -7 -20 -7 -20 -1 0 7 -9 7 -25 1 -15 -6 -26 -6
-30 1 -4 5 -11 6 -17 3 -6 -4 -20 -8 -32 -9 -11 -1 -24 -3 -27 -4 -18 -3 -34
-271 -16 -271 4 0 3 -10 -4 -21 -8 -15 -8 -19 0 -15 7 5 11 -8 11 -39 0 -32
-3 -44 -12 -39 -7 5 -8 3 -2 -7 9 -14 7 -115 -2 -131 -3 -4 -10 -5 -16 -2 -7
4 -8 2 -4 -5 4 -6 11 -9 16 -6 5 3 10 -16 10 -42 3 -99 5 -113 15 -113 7 0 7
-3 0 -8 -9 -7 -14 -41 -16 -119 -1 -18 -5 -30 -9 -28 -5 3 -12 1 -15 -5 -4 -6
-1 -9 6 -8 9 2 13 -9 14 -31 0 -26 -5 -35 -18 -37 -11 -1 -22 -5 -25 -9 -4 -3
6 -4 21 -1 28 5 28 5 30 -51 1 -10 -5 -17 -12 -15 -7 1 -10 -2 -6 -8 3 -6 11
-8 16 -5 5 4 9 -14 9 -40 0 -34 -3 -44 -12 -39 -10 6 -10 5 -1 -8 7 -8 10 -18
6 -21 -3 -4 -7 -17 -7 -29 -1 -13 -6 -29 -10 -37 -6 -9 -5 -12 1 -8 7 4 11
-11 11 -41 1 -26 3 -85 6 -131 3 -46 2 -89 -1 -94 -10 -17 -9 -227 2 -231 6
-3 3 -9 -5 -15 -11 -8 -12 -11 -2 -11 19 0 13 -99 -8 -124 -8 -11 -10 -17 -4
-13 11 6 16 -72 15 -248 0 -49 0 -124 -1 -165 0 -41 3 -101 6 -132 l6 -58 201
-1 c111 0 316 0 455 1 203 0 252 -2 246 -12 -6 -10 -4 -10 8 0 11 9 46 13 110
12 207 -3 218 -2 218 19 0 11 4 22 8 25 5 3 7 19 4 37 -4 24 -2 30 8 24 10 -6
11 -4 4 6 -17 27 -15 49 4 43 15 -5 15 -4 -1 6 -14 9 -16 15 -6 26 9 11 9 14
-1 14 -10 0 -10 3 -1 14 8 10 9 16 1 21 -5 3 -10 14 -10 23 0 15 2 15 10 2 5
-8 10 -10 10 -4 0 5 -4 14 -9 20 -5 5 -12 23 -15 40 l-7 32 82 0 c45 0 85 4
90 9 5 5 11 24 12 41 1 18 4 32 7 32 3 0 4 32 3 70 -1 52 1 69 10 63 7 -4 6 0
-2 10 -11 14 -11 20 0 34 10 11 10 14 2 9 -7 -4 -13 -6 -14 -4 0 2 -3 33 -6
71 -4 52 -2 67 8 67 11 0 11 3 -1 10 -8 5 -10 10 -5 10 6 0 10 18 8 40 -1 27
2 38 9 34 7 -5 8 -2 2 7 -5 8 -9 30 -10 49 -2 51 -14 141 -20 151 -3 5 -43 9
-90 9 -52 0 -84 4 -84 11 0 5 6 7 13 3 9 -6 9 -4 -1 8 -9 11 -10 18 -2 23 6 3
7 11 4 17 -5 7 -1 9 9 5 9 -3 21 1 29 11 11 15 11 15 -2 5 -21 -16 -35 -4 -37
30 -2 23 0 27 11 17 11 -8 16 -8 22 1 4 7 3 9 -3 6 -6 -4 -16 0 -23 8 -10 12
-9 15 6 15 18 1 18 1 2 11 -10 5 -18 15 -18 21 0 7 4 7 14 -1 10 -9 17 -7 27
6 12 16 12 17 -2 6 -23 -18 -40 2 -28 34 6 16 5 22 -1 18 -6 -4 -10 6 -10 22
0 15 -3 38 -6 51 -6 22 -4 23 26 20 23 -2 34 -9 36 -21 1 -11 5 -22 9 -25 3
-4 4 5 2 19 -5 24 -3 26 34 26 21 0 36 -4 33 -9 -4 -5 3 -4 15 4 12 7 21 24
22 38 0 14 3 34 5 45 9 39 10 170 1 189 -6 13 -6 16 2 12 6 -4 11 -2 11 3 0 6
-5 11 -11 11 -7 0 -9 10 -7 25 3 14 2 28 -2 30 -4 2 -5 16 -3 30 3 13 9 22 14
19 5 -3 9 0 9 5 0 6 -6 11 -12 11 -8 0 -9 3 -3 8 11 7 15 212 4 212 -3 0 -6
14 -7 32 0 19 -10 39 -23 52 -13 12 -17 14 -11 5 11 -15 9 -16 -15 -15 -16 1
-33 5 -40 9 -6 4 -14 4 -17 -1 -2 -4 -19 -8 -38 -7 -31 0 -33 2 -30 30 2 17 4
53 5 80 1 30 8 55 17 63 13 10 13 11 -2 6 -18 -6 -19 10 -4 35 6 9 5 12 -1 8
-6 -4 -11 9 -12 31 -1 20 -3 46 -5 57 -3 11 -5 25 -5 32 -1 6 -10 10 -21 8
-11 -2 -20 2 -20 8 0 8 -3 8 -8 2 -8 -12 -41 -13 -59 -2 -6 4 -15 3 -18 -3 -5
-8 -11 -8 -19 -1 -7 6 -16 8 -20 4 -10 -10 -106 -11 -100 -1 3 4 0 8 -5 8 -6
0 -11 -5 -11 -10 0 -13 -32 -9 -42 5 -5 6 -11 6 -16 -2 -8 -12 -29 -13 -49 0
-6 4 -14 1 -16 -5 -4 -10 -8 -9 -16 2 -10 13 -11 13 -11 0 0 -13 -1 -13 -10 0
-8 12 -12 12 -18 2 -12 -17 -34 -12 -50 13 -10 15 -12 16 -8 3z m-310 -400
l-19 -23 25 21 c14 11 32 20 40 19 8 -1 24 3 34 8 16 8 18 6 12 -8 -5 -14 -3
-15 6 -8 7 6 80 10 168 10 129 1 158 -2 175 -16 17 -14 18 -14 7 0 -13 17 -6
32 11 22 6 -3 49 -7 96 -7 85 -1 86 -1 83 -26 -1 -13 -8 -28 -15 -32 -9 -6 -9
-8 0 -8 6 0 11 -13 11 -30 -1 -23 -4 -27 -14 -19 -9 7 -14 6 -20 -2 -4 -7 -3
-9 3 -6 6 4 16 1 22 -7 9 -10 8 -16 -4 -26 -17 -14 -20 -30 -4 -30 5 0 7 5 4
10 -3 6 -1 10 4 10 12 0 10 -27 -2 -47 -4 -6 -4 -14 1 -17 4 -2 9 -19 10 -36
2 -20 -1 -29 -8 -25 -6 3 -8 10 -5 15 3 5 1 11 -4 14 -17 11 -5 -27 13 -40 15
-11 17 -21 11 -66 -5 -29 -8 -72 -9 -95 0 -24 -5 -43 -10 -43 -6 0 -5 -5 2
-12 14 -14 16 -32 3 -23 -5 3 -13 1 -16 -5 -4 -6 -1 -9 6 -8 8 2 13 -11 14
-37 1 -22 5 -54 9 -70 7 -31 7 -31 -39 -32 -32 -1 -43 2 -38 10 5 9 3 9 -8 1
-20 -16 -81 -16 -73 -1 5 8 3 8 -7 0 -7 -7 -24 -13 -37 -13 -19 0 -22 3 -13
13 8 10 7 14 -4 14 -7 0 -13 -5 -12 -11 3 -15 -233 -17 -252 -2 -11 8 -13 8
-8 -1 5 -8 -4 -12 -33 -11 -25 0 -37 4 -33 11 4 6 1 7 -8 1 -8 -5 -40 -10 -71
-10 l-58 -1 7 41 c4 22 7 60 7 84 0 31 5 42 16 43 10 0 9 3 -5 9 -16 7 -17 9
-3 9 9 1 19 5 22 10 3 5 -2 8 -11 7 -13 -1 -17 10 -19 48 -1 26 -5 51 -8 54
-3 3 0 12 7 20 10 13 9 14 -1 8 -11 -7 -12 1 -7 40 10 79 10 81 25 100 14 17
14 18 -2 5 -11 -8 -18 -9 -18 -3 0 6 8 16 18 21 16 10 16 10 0 11 -10 0 -18 5
-18 11 0 6 8 8 18 5 16 -6 16 -5 0 7 -13 11 -15 16 -6 25 7 7 8 12 2 12 -5 0
-10 15 -11 33 0 17 -4 47 -8 65 -6 27 -5 32 10 32 15 0 16 -2 4 -17 -9 -11 -3
-9 15 5 35 27 47 21 20 -10z m148 -1047 c-1 -7 2 -10 8 -6 6 3 8 10 6 14 -3 3
11 7 30 7 19 0 34 -5 34 -11 0 -5 5 -3 10 5 9 13 10 13 10 0 0 -9 3 -11 8 -5
8 12 172 15 172 3 0 -4 5 -8 11 -8 5 0 8 4 5 8 -7 12 78 9 86 -3 5 -6 8 -4 8
5 0 13 1 13 10 0 8 -12 10 -12 10 -1 0 9 5 7 18 -6 9 -10 14 -14 10 -8 -12 18
3 26 20 12 11 -8 14 -9 9 0 -5 8 0 11 13 10 11 -1 20 -7 20 -15 0 -7 -4 -11
-9 -8 -4 3 -6 -6 -3 -19 2 -15 0 -25 -7 -25 -7 0 -9 6 -5 13 4 6 5 10 1 7 -3
-3 -6 -9 -7 -15 -1 -5 -9 -19 -18 -30 -17 -20 -17 -20 4 -2 28 23 29 23 29
-23 0 -22 -3 -40 -8 -40 -4 0 -5 -5 -2 -10 6 -10 14 -90 18 -180 1 -25 -2 -46
-8 -46 -5 -1 -9 2 -7 8 1 5 -2 6 -8 3 -8 -5 -7 -12 3 -23 15 -17 18 -78 4 -99
-4 -6 -1 -14 5 -16 10 -4 9 -8 -2 -16 -8 -6 -10 -11 -5 -11 6 0 10 -26 9 -65
0 -35 3 -62 7 -59 5 3 9 -4 9 -15 0 -12 -5 -21 -11 -21 -5 0 -7 5 -3 12 5 7 3
8 -6 3 -19 -12 -270 -13 -263 -1 4 5 1 6 -7 1 -26 -16 -144 -13 -165 4 -16 13
-18 13 -8 1 10 -13 -3 -15 -108 -14 -117 0 -147 6 -119 24 9 6 10 10 3 10 -8
0 -9 9 -3 30 10 35 6 216 -6 245 -7 18 -6 18 9 6 9 -7 14 -18 10 -24 -4 -6 -1
-7 6 -2 9 5 7 13 -9 30 -17 18 -20 30 -15 59 4 19 7 39 7 43 0 5 5 14 11 22 7
8 7 12 2 9 -7 -4 -10 9 -9 35 1 31 6 42 17 42 9 0 19 4 24 8 4 5 4 8 -2 7 -5
-1 -18 -2 -29 -1 -14 1 -16 4 -7 14 6 8 8 17 4 21 -4 4 -8 17 -9 29 -1 12 -4
38 -7 57 l-6 36 102 -1 c76 -1 101 -4 99 -14z"/>
<path d="M1636 2473 c-6 -14 -5 -15 5 -6 7 7 10 15 7 18 -3 3 -9 -2 -12 -12z"/>
<path d="M1880 2486 c0 -2 8 -10 18 -17 15 -13 16 -12 3 4 -13 16 -21 21 -21
13z"/>
<path d="M1833 2465 c0 -8 4 -15 9 -15 4 0 8 4 8 9 0 6 -4 12 -8 15 -5 3 -9
-1 -9 -9z"/>
<path d="M1320 2455 c-7 -8 -16 -13 -20 -10 -5 3 -11 2 -14 -3 -10 -17 24 -8
41 10 9 10 14 18 11 18 -3 0 -11 -7 -18 -15z"/>
<path d="M1373 2447 c0 -16 34 -20 43 -5 4 7 2 8 -5 4 -6 -4 -18 -3 -25 3 -9
8 -13 7 -13 -2z"/>
<path d="M1434 2446 c1 -8 5 -18 8 -22 4 -3 5 1 4 10 -1 8 -5 18 -8 22 -4 3
-5 -1 -4 -10z"/>
<path d="M1754 2446 c1 -8 5 -18 8 -22 4 -3 5 1 4 10 -1 8 -5 18 -8 22 -4 3
-5 -1 -4 -10z"/>
<path d="M1466 2442 c-3 -5 1 -9 9 -9 8 0 12 4 9 9 -3 4 -7 8 -9 8 -2 0 -6 -4
-9 -8z"/>
<path d="M1500 2446 c0 -2 8 -10 18 -17 15 -13 16 -12 3 4 -13 16 -21 21 -21
13z"/>
<path d="M1871 2427 c-13 -21 -12 -21 5 -5 10 10 16 20 13 22 -3 3 -11 -5 -18
-17z"/>
<path d="M1376 2407 c3 -10 9 -15 12 -12 3 3 0 11 -7 18 -10 9 -11 8 -5 -6z"/>
<path d="M1889 2403 c-13 -16 -12 -17 4 -4 9 7 17 15 17 17 0 8 -8 3 -21 -13z"/>
<path d="M1339 2393 c-12 -16 -12 -17 2 -6 9 7 20 9 24 5 5 -4 5 -1 1 6 -9 16
-11 15 -27 -5z"/>
<path d="M1410 2399 c0 -5 5 -7 10 -4 6 3 10 8 10 11 0 2 -4 4 -10 4 -5 0 -10
-5 -10 -11z"/>
<path d="M1270 2396 c0 -2 8 -10 18 -17 15 -13 16 -12 3 4 -13 16 -21 21 -21
13z"/>
<path d="M1755 2371 c-3 -5 -2 -12 3 -15 5 -3 9 1 9 9 0 17 -3 19 -12 6z"/>
<path d="M1876 2318 c3 -5 10 -6 15 -3 13 9 11 12 -6 12 -8 0 -12 -4 -9 -9z"/>
<path d="M1311 2293 c7 -12 15 -20 18 -17 3 2 -3 12 -13 22 -17 16 -18 16 -5
-5z"/>
<path d="M1336 2138 c3 -5 10 -6 15 -3 13 9 11 12 -6 12 -8 0 -12 -4 -9 -9z"/>
<path d="M1279 2113 c-13 -16 -12 -17 4 -4 9 7 17 15 17 17 0 8 -8 3 -21 -13z"/>
<path d="M1915 2120 c3 -5 8 -10 11 -10 2 0 4 5 4 10 0 6 -5 10 -11 10 -5 0
-7 -4 -4 -10z"/>
<path d="M1309 2083 c-13 -16 -12 -17 4 -4 16 13 21 21 13 21 -2 0 -10 -8 -17
-17z"/>
<path d="M1275 2080 c3 -5 8 -10 11 -10 2 0 4 5 4 10 0 6 -5 10 -11 10 -5 0
-7 -4 -4 -10z"/>
<path d="M1857 2055 c-4 -8 -3 -16 1 -19 4 -3 9 4 9 15 2 23 -3 25 -10 4z"/>
<path d="M1273 2036 c-3 -6 -3 -8 2 -4 4 4 13 3 20 -2 8 -7 12 -5 12 3 0 16
-25 18 -34 3z"/>
<path d="M1311 1987 c-13 -21 -12 -21 5 -5 10 10 16 20 13 22 -3 3 -11 -5 -18
-17z"/>
<path d="M1467 1999 c7 -7 15 -10 18 -7 3 3 -2 9 -12 12 -14 6 -15 5 -6 -5z"/>
<path d="M1355 1971 c-3 -5 -2 -12 3 -15 5 -3 9 1 9 9 0 17 -3 19 -12 6z"/>
<path d="M1320 1966 c0 -2 8 -10 18 -17 15 -13 16 -12 3 4 -13 16 -21 21 -21
13z"/>
<path d="M1277 1933 c3 -7 6 -13 8 -13 2 0 5 6 8 13 3 8 -1 14 -8 14 -7 0 -11
-6 -8 -14z"/>
<path d="M1880 1935 c-7 -8 -17 -12 -23 -8 -6 4 -7 1 -3 -6 5 -7 10 -10 14 -7
3 3 11 -2 19 -12 13 -15 13 -15 4 4 -7 15 -7 24 1 32 7 7 9 12 6 12 -3 0 -11
-7 -18 -15z"/>
<path d="M1330 1921 c0 -6 4 -13 10 -16 6 -3 7 1 4 9 -7 18 -14 21 -14 7z"/>
<path d="M1390 1899 c0 -5 5 -7 10 -4 6 3 10 8 10 11 0 2 -4 4 -10 4 -5 0 -10
-5 -10 -11z"/>
<path d="M1740 1900 c-8 -5 -10 -10 -5 -10 6 0 17 5 25 10 8 5 11 10 5 10 -5
0 -17 -5 -25 -10z"/>
<path d="M1324 1882 c23 -26 23 -26 23 -7 0 8 -3 13 -5 10 -3 -3 -12 1 -21 7
-10 8 -9 4 3 -10z"/>
<path d="M1599 1898 c-5 -18 -6 -38 -1 -34 7 8 12 36 6 36 -2 0 -4 -1 -5 -2z"/>
<path d="M1853 1878 c0 -13 1 -17 4 -10 3 6 10 9 16 5 7 -4 6 1 -2 10 -17 21
-17 21 -18 -5z"/>
<path d="M1640 1880 c-9 -6 -10 -10 -3 -10 6 0 15 5 18 10 8 12 4 12 -15 0z"/>
<path d="M1800 1885 c0 -2 6 -8 13 -14 10 -8 14 -7 14 2 0 8 -6 14 -14 14 -7
0 -13 -1 -13 -2z"/>
<path d="M1300 1866 c0 -2 8 -10 18 -17 15 -13 16 -12 3 4 -13 16 -21 21 -21
13z"/>
<path d="M1430 1866 c0 -2 7 -7 16 -10 8 -3 12 -2 9 4 -6 10 -25 14 -25 6z"/>
<path d="M1780 1866 c0 -2 8 -10 18 -17 15 -13 16 -12 3 4 -13 16 -21 21 -21
13z"/>
<path d="M1880 1855 c-7 -8 -16 -13 -20 -10 -5 3 -11 2 -14 -3 -10 -17 24 -8
41 10 9 10 14 18 11 18 -3 0 -11 -7 -18 -15z"/>
<path d="M1517 1853 c-10 -9 -9 -23 1 -23 5 0 9 7 9 15 0 17 -1 18 -10 8z"/>
<path d="M1271 1847 c2 -1 13 -9 24 -17 19 -14 19 -14 6 3 -7 9 -18 17 -24 17
-6 0 -8 -1 -6 -3z"/>
<path d="M1336 1833 c-6 -14 -5 -15 5 -6 7 7 10 15 7 18 -3 3 -9 -2 -12 -12z"/>
<path d="M1419 1833 c-12 -16 -12 -17 2 -6 9 7 20 9 24 5 5 -4 5 -1 1 6 -9 16
-11 15 -27 -5z"/>
<path d="M1816 1833 c-6 -14 -5 -15 5 -6 7 7 10 15 7 18 -3 3 -9 -2 -12 -12z"/>
<path d="M1899 1833 c-12 -16 -12 -17 2 -6 9 7 19 10 22 6 4 -3 7 -1 7 5 0 17
-16 15 -31 -5z"/>
<path d="M1680 1820 c-9 -6 -10 -10 -3 -10 6 0 15 5 18 10 8 12 4 12 -15 0z"/>
<path d="M1359 1438 c-6 -23 -7 -48 -1 -48 4 0 8 11 8 25 0 21 -4 33 -7 23z"/>
<path d="M1320 1415 c-7 -9 -11 -17 -9 -20 3 -2 10 5 17 15 14 24 10 26 -8 5z"/>
<path d="M1854 1401 c0 -11 5 -17 13 -14 10 4 11 9 2 19 -15 18 -15 18 -15 -5z"/>
<path d="M1393 1386 l-18 -21 24 20 c13 11 25 19 28 17 3 -2 7 -2 9 1 2 2 -3
4 -11 4 -8 0 -23 -10 -32 -21z"/>
<path d="M1470 1406 c0 -2 7 -7 16 -10 8 -3 12 -2 9 4 -6 10 -25 14 -25 6z"/>
<path d="M1756 1399 c4 -8 30 -6 38 2 3 3 -5 5 -19 5 -13 0 -22 -3 -19 -7z"/>
<path d="M1570 1380 c0 -5 5 -10 11 -10 5 0 7 5 4 10 -3 6 -8 10 -11 10 -2 0
-4 -4 -4 -10z"/>
<path d="M1650 1379 c0 -5 5 -7 10 -4 6 3 10 8 10 11 0 2 -4 4 -10 4 -5 0 -10
-5 -10 -11z"/>
<path d="M1879 1373 c-13 -16 -12 -17 4 -4 9 7 17 15 17 17 0 8 -8 3 -21 -13z"/>
<path d="M1302 1364 c10 -10 20 -16 22 -13 3 3 -5 11 -17 18 -21 13 -21 12 -5
-5z"/>
<path d="M1270 1356 c0 -2 8 -10 18 -17 15 -13 16 -12 3 4 -13 16 -21 21 -21
13z"/>
<path d="M1446 1338 c3 -5 10 -6 15 -3 13 9 11 12 -6 12 -8 0 -12 -4 -9 -9z"/>
<path d="M1746 1342 c-3 -5 1 -9 9 -9 8 0 12 4 9 9 -3 4 -7 8 -9 8 -2 0 -6 -4
-9 -8z"/>
<path d="M1830 1341 c0 -6 4 -13 10 -16 6 -3 7 1 4 9 -7 18 -14 21 -14 7z"/>
<path d="M1546 1318 c3 -5 10 -6 15 -3 13 9 11 12 -6 12 -8 0 -12 -4 -9 -9z"/>
<path d="M1875 1322 c3 -3 0 -10 -5 -17 -7 -8 -5 -12 5 -12 8 0 13 3 10 5 -3
3 0 10 5 17 7 8 5 12 -5 12 -8 0 -13 -3 -10 -5z"/>
<path d="M1313 1249 c-2 -23 3 -25 10 -4 4 8 3 16 -1 19 -4 3 -9 -4 -9 -15z"/>
<path d="M1370 1265 c0 -5 5 -17 10 -25 5 -8 10 -10 10 -5 0 6 -5 17 -10 25
-5 8 -10 11 -10 5z"/>
<path d="M1899 1233 c-13 -16 -12 -17 4 -4 16 13 21 21 13 21 -2 0 -10 -8 -17
-17z"/>
<path d="M1896 1202 c-3 -5 1 -9 9 -9 8 0 12 4 9 9 -3 4 -7 8 -9 8 -2 0 -6 -4
-9 -8z"/>
<path d="M1836 1153 c-6 -14 -5 -15 5 -6 7 7 10 15 7 18 -3 3 -9 -2 -12 -12z"/>
<path d="M1336 1098 c3 -5 10 -6 15 -3 13 9 11 12 -6 12 -8 0 -12 -4 -9 -9z"/>
<path d="M1334 1016 c1 -8 5 -18 8 -22 4 -3 5 1 4 10 -1 8 -5 18 -8 22 -4 3
-5 -1 -4 -10z"/>
<path d="M1857 1015 c-4 -8 -3 -16 1 -19 4 -3 9 4 9 15 2 23 -3 25 -10 4z"/>
<path d="M1900 1026 c0 -2 8 -10 18 -17 15 -13 16 -12 3 4 -13 16 -21 21 -21
13z"/>
<path d="M1275 991 c-3 -5 -2 -12 3 -15 5 -3 9 1 9 9 0 17 -3 19 -12 6z"/>
<path d="M1910 981 c0 -6 4 -13 10 -16 6 -3 7 1 4 9 -7 18 -14 21 -14 7z"/>
<path d="M1876 967 c3 -10 9 -15 12 -12 3 3 0 11 -7 18 -10 9 -11 8 -5 -6z"/>
<path d="M1313 894 c16 -20 52 -30 41 -12 -4 5 -9 7 -12 4 -3 -3 -15 2 -26 11
-21 18 -21 18 -3 -3z"/>
<path d="M1889 883 c-13 -16 -12 -17 4 -4 16 13 21 21 13 21 -2 0 -10 -8 -17
-17z"/>
<path d="M1280 886 c0 -2 8 -10 18 -17 15 -13 16 -12 3 4 -13 16 -21 21 -21
13z"/>
<path d="M1909 863 c-13 -16 -12 -17 4 -4 16 13 21 21 13 21 -2 0 -10 -8 -17
-17z"/>
<path d="M1770 860 c0 -5 5 -10 11 -10 5 0 7 5 4 10 -3 6 -8 10 -11 10 -2 0
-4 -4 -4 -10z"/>
<path d="M1330 856 c0 -2 8 -10 18 -17 15 -13 16 -12 3 4 -13 16 -21 21 -21
13z"/>
<path d="M1309 837 c6 -8 9 -16 6 -19 -3 -2 2 -5 10 -5 13 0 13 3 -2 19 -19
21 -31 25 -14 5z"/>
<path d="M1276 822 c-3 -5 1 -9 9 -9 8 0 12 4 9 9 -3 4 -7 8 -9 8 -2 0 -6 -4
-9 -8z"/>
<path d="M1495 820 c-3 -5 -1 -10 4 -10 6 0 11 5 11 10 0 6 -2 10 -4 10 -3 0
-8 -4 -11 -10z"/>
<path d="M1826 822 c-2 -4 4 -8 14 -8 10 0 16 4 14 8 -3 4 -9 8 -14 8 -5 0
-11 -4 -14 -8z"/>
<path d="M1677 795 c-4 -8 -3 -16 1 -19 4 -3 9 4 9 15 2 23 -3 25 -10 4z"/>
<path d="M1513 785 c0 -8 4 -12 9 -9 5 3 6 10 3 15 -9 13 -12 11 -12 -6z"/>
<path d="M1714 786 c1 -8 5 -18 8 -22 4 -3 5 1 4 10 -1 8 -5 18 -8 22 -4 3 -5
-1 -4 -10z"/>
<path d="M1300 784 c0 -1 6 -7 14 -13 10 -9 15 -8 19 2 3 8 -3 13 -14 13 -11
0 -19 -1 -19 -2z"/>
<path d="M1390 775 c5 -7 6 -16 2 -21 -4 -5 -3 -5 2 -1 15 12 15 34 0 34 -9 0
-11 -4 -4 -12z"/>
<path d="M1420 786 c0 -2 8 -10 18 -17 15 -13 16 -12 3 4 -13 16 -21 21 -21
13z"/>
<path d="M1545 780 c-3 -6 1 -7 9 -4 18 7 21 14 7 14 -6 0 -13 -4 -16 -10z"/>
<path d="M1630 786 c0 -2 7 -7 16 -10 8 -3 12 -2 9 4 -6 10 -25 14 -25 6z"/>
<path d="M1740 785 c0 -2 6 -8 13 -14 10 -8 14 -7 14 2 0 8 -6 14 -14 14 -7 0
-13 -1 -13 -2z"/>
<path d="M1780 785 c0 -2 6 -8 13 -14 10 -8 14 -7 14 2 0 8 -6 14 -14 14 -7 0
-13 -1 -13 -2z"/>
<path d="M1827 773 c3 -7 8 -13 12 -13 4 0 8 6 8 13 0 8 -6 14 -13 14 -7 0
-10 -6 -7 -14z"/>
<path d="M1870 775 c5 -7 6 -16 2 -21 -4 -5 -3 -5 2 -1 15 12 15 34 0 34 -9 0
-11 -4 -4 -12z"/>
<path d="M1753 2875 c0 -8 4 -12 9 -9 5 3 6 10 3 15 -9 13 -12 11 -12 -6z"/>
<path d="M2196 2633 c-6 -14 -5 -15 5 -6 7 7 10 15 7 18 -3 3 -9 -2 -12 -12z"/>
<path d="M2239 2593 c-13 -16 -12 -17 4 -4 9 7 17 15 17 17 0 8 -8 3 -21 -13z"/>
<path d="M800 2480 c-9 -6 -10 -10 -3 -10 6 0 15 5 18 10 8 12 4 12 -15 0z"/>
<path d="M856 2438 c3 -5 10 -6 15 -3 13 9 11 12 -6 12 -8 0 -12 -4 -9 -9z"/>
<path d="M806 2418 c3 -5 10 -6 15 -3 13 9 11 12 -6 12 -8 0 -12 -4 -9 -9z"/>
<path d="M2346 2318 c3 -5 10 -6 15 -3 13 9 11 12 -6 12 -8 0 -12 -4 -9 -9z"/>
<path d="M2353 2215 c0 -8 4 -12 9 -9 5 3 6 10 3 15 -9 13 -12 11 -12 -6z"/>
<path d="M2396 2162 c-3 -5 1 -9 9 -9 8 0 12 4 9 9 -3 4 -7 8 -9 8 -2 0 -6 -4
-9 -8z"/>
<path d="M815 2099 c-3 -4 2 -6 10 -5 21 3 28 13 10 13 -9 0 -18 -4 -20 -8z"/>
<path d="M2345 2080 c-3 -6 1 -7 9 -4 18 7 21 14 7 14 -6 0 -13 -4 -16 -10z"/>
<path d="M2355 2011 c-3 -5 -2 -12 3 -15 5 -3 9 1 9 9 0 17 -3 19 -12 6z"/>
<path d="M799 1853 c-12 -16 -12 -17 2 -6 9 7 20 9 24 5 5 -4 5 -1 1 6 -9 16
-11 15 -27 -5z"/>
<path d="M816 1782 c-2 -4 -1 -14 4 -22 7 -11 9 -9 7 8 -1 24 -3 26 -11 14z"/>
<path d="M2173 1755 c0 -8 4 -12 9 -9 5 3 6 10 3 15 -9 13 -12 11 -12 -6z"/>
<path d="M2195 1730 c-4 -6 -10 -8 -14 -6 -4 3 -8 -1 -8 -9 0 -13 4 -12 19 2
18 16 22 23 14 23 -3 0 -8 -5 -11 -10z"/>
<path d="M2195 1690 c-4 -6 -10 -8 -15 -5 -5 3 -11 1 -14 -4 -8 -13 22 -7 36
7 7 7 9 12 6 12 -4 0 -10 -5 -13 -10z"/>
<path d="M830 1659 c0 -5 5 -7 10 -4 6 3 10 8 10 11 0 2 -4 4 -10 4 -5 0 -10
-5 -10 -11z"/>
<path d="M2235 1640 c3 -5 8 -10 11 -10 2 0 4 5 4 10 0 6 -5 10 -11 10 -5 0
-7 -4 -4 -10z"/>
<path d="M806 1578 c3 -5 10 -6 15 -3 13 9 11 12 -6 12 -8 0 -12 -4 -9 -9z"/>
<path d="M2193 1583 c4 -3 1 -13 -6 -22 -11 -14 -10 -14 5 -2 16 12 16 31 1
31 -4 0 -3 -3 0 -7z"/>
<path d="M2250 1540 c0 -5 5 -10 11 -10 5 0 7 5 4 10 -3 6 -8 10 -11 10 -2 0
-4 -4 -4 -10z"/>
<path d="M839 1538 c-5 -18 -6 -38 -1 -34 7 8 12 36 6 36 -2 0 -4 -1 -5 -2z"/>
<path d="M2190 1506 c0 -2 7 -7 16 -10 8 -3 12 -2 9 4 -6 10 -25 14 -25 6z"/>
<path d="M2174 1478 c-4 -7 -4 -10 1 -6 4 4 15 2 24 -5 14 -11 14 -10 2 6 -16
20 -18 21 -27 5z"/>
<path d="M806 1458 c3 -5 10 -6 15 -3 13 9 11 12 -6 12 -8 0 -12 -4 -9 -9z"/>
<path d="M856 1402 c-3 -5 1 -9 9 -9 8 0 12 4 9 9 -3 4 -7 8 -9 8 -2 0 -6 -4
-9 -8z"/>
<path d="M840 1360 c-9 -6 -10 -10 -3 -10 6 0 15 5 18 10 8 12 4 12 -15 0z"/>
<path d="M2334 1338 c-4 -7 -3 -10 1 -5 5 4 18 -1 29 -10 21 -18 21 -18 2 5
-22 26 -23 26 -32 10z"/>
<path d="M806 1302 c-3 -5 1 -9 9 -9 8 0 12 4 9 9 -3 4 -7 8 -9 8 -2 0 -6 -4
-9 -8z"/>
<path d="M816 1267 c3 -10 9 -15 12 -12 3 3 0 11 -7 18 -10 9 -11 8 -5 -6z"/>
<path d="M816 1213 c-6 -14 -5 -15 5 -6 7 7 10 15 7 18 -3 3 -9 -2 -12 -12z"/>
<path d="M813 1145 c0 -8 4 -12 9 -9 5 3 6 10 3 15 -9 13 -12 11 -12 -6z"/>
<path d="M2386 1118 c3 -5 10 -6 15 -3 13 9 11 12 -6 12 -8 0 -12 -4 -9 -9z"/>
<path d="M813 975 c0 -8 4 -12 9 -9 5 3 6 10 3 15 -9 13 -12 11 -12 -6z"/>
<path d="M836 942 c-3 -5 1 -9 9 -9 8 0 12 4 9 9 -3 4 -7 8 -9 8 -2 0 -6 -4
-9 -8z"/>
<path d="M806 858 c3 -5 10 -6 15 -3 13 9 11 12 -6 12 -8 0 -12 -4 -9 -9z"/>
<path d="M825 800 c-3 -6 1 -7 9 -4 18 7 21 14 7 14 -6 0 -13 -4 -16 -10z"/>
<path d="M2180 705 c0 -2 6 -8 13 -14 10 -8 14 -7 14 2 0 8 -6 14 -14 14 -7 0
-13 -1 -13 -2z"/>
<path d="M2175 649 c-4 -6 -5 -12 -2 -15 2 -3 7 2 10 11 7 17 1 20 -8 4z"/>
<path d="M2255 640 c3 -5 8 -10 11 -10 2 0 4 5 4 10 0 6 -5 10 -11 10 -5 0 -7
-4 -4 -10z"/>
<path d="M2195 580 c3 -5 8 -10 11 -10 2 0 4 5 4 10 0 6 -5 10 -11 10 -5 0 -7
-4 -4 -10z"/>
<path d="M855 551 c-3 -5 -2 -12 3 -15 5 -3 9 1 9 9 0 17 -3 19 -12 6z"/>
<path d="M1135 369 c-4 -6 -5 -12 -2 -15 2 -3 7 2 10 11 7 17 1 20 -8 4z"/>
<path d="M1433 367 c0 -8 6 -14 14 -14 9 0 10 4 2 14 -6 7 -12 13 -14 13 -1 0
-2 -6 -2 -13z"/>
<path d="M1656 367 c3 -10 9 -15 12 -12 3 3 0 11 -7 18 -10 9 -11 8 -5 -6z"/>
<path d="M1736 367 c3 -10 9 -15 12 -12 3 3 0 11 -7 18 -10 9 -11 8 -5 -6z"/>
<path d="M1190 366 c0 -2 7 -7 16 -10 8 -3 12 -2 9 4 -6 10 -25 14 -25 6z"/>
<path d="M1615 351 c-3 -5 -2 -12 3 -15 5 -3 9 1 9 9 0 17 -3 19 -12 6z"/>
<path d="M1695 351 c-3 -5 -2 -12 3 -15 5 -3 9 1 9 9 0 17 -3 19 -12 6z"/>
<path d="M1775 351 c-3 -5 -2 -12 3 -15 5 -3 9 1 9 9 0 17 -3 19 -12 6z"/>
<path d="M1250 339 c0 -5 5 -7 10 -4 6 3 10 8 10 11 0 2 -4 4 -10 4 -5 0 -10
-5 -10 -11z"/>
<path d="M1354 342 c4 -3 14 -7 22 -8 9 -1 13 0 10 4 -4 3 -14 7 -22 8 -9 1
-13 0 -10 -4z"/>
<path d="M1490 339 c0 -5 5 -7 10 -4 6 3 10 8 10 11 0 2 -4 4 -10 4 -5 0 -10
-5 -10 -11z"/>
<path d="M1575 340 c-3 -5 -1 -10 4 -10 6 0 11 5 11 10 0 6 -2 10 -4 10 -3 0
-8 -4 -11 -10z"/>
</g>
</svg>
