<?xml version="1.0" standalone="no"?>
<!DOCTYPE svg PUBLIC "-//W3C//DTD SVG 20010904//EN"
 "http://www.w3.org/TR/2001/REC-SVG-20010904/DTD/svg10.dtd">
<svg version="1.0" xmlns="http://www.w3.org/2000/svg"
 width="320.000000pt" height="320.000000pt" viewBox="0 0 320.000000 320.000000"
 preserveAspectRatio="xMidYMid meet">
<metadata>
Created by potrace 1.11, written by Peter Selinger 2001-2013
</metadata>
<g transform="translate(0.000000,320.000000) scale(0.100000,-0.100000)"
fill="#000000" stroke="none">
<path d="M1032 3020 c2 -7 -5 -17 -15 -23 -14 -10 -20 -9 -27 3 -5 8 -10 10
-10 5 0 -6 -9 -11 -20 -12 -11 -1 -18 2 -15 8 4 5 1 9 -4 9 -6 0 -11 -4 -11
-8 0 -5 -29 -8 -65 -8 -36 1 -65 -1 -66 -4 -6 -35 -9 -70 -9 -94 1 -26 -1 -28
-17 -15 -16 13 -17 12 -4 -4 9 -12 16 -55 19 -130 9 -206 7 -246 -12 -276 -6
-10 -5 -12 2 -7 16 10 15 -7 0 -23 -7 -8 -8 -11 -3 -8 6 3 10 -18 11 -54 1
-41 -2 -57 -10 -52 -6 4 -5 -1 3 -10 7 -9 11 -17 9 -17 -3 0 -2 -19 2 -42 6
-29 4 -48 -3 -57 -10 -12 -9 -13 1 -7 11 7 12 -3 7 -50 -4 -33 -11 -63 -16
-69 -5 -5 -9 -14 -9 -20 0 -5 4 -4 9 4 6 9 8 5 7 -15 -1 -16 -5 -35 -9 -41 -5
-8 -3 -13 5 -13 9 0 9 -3 -2 -10 -8 -5 -10 -10 -4 -10 12 0 13 -49 0 -69 -6
-10 -6 -12 2 -7 7 4 12 1 12 -8 0 -9 -6 -16 -12 -17 -7 0 -4 -4 7 -9 11 -5 14
-9 8 -9 -7 -1 -13 -6 -13 -12 0 -5 4 -7 10 -4 6 4 8 -16 4 -57 -3 -35 -7 -99
-8 -144 -2 -44 -6 -86 -10 -92 -4 -7 -3 -12 3 -12 5 0 9 -18 8 -40 -2 -22 1
-40 5 -40 4 0 4 -33 1 -72 -3 -40 -5 -85 -5 -100 0 -18 -4 -25 -12 -21 -6 4
-5 0 2 -9 10 -13 10 -17 0 -21 -9 -4 -10 -8 -3 -14 13 -10 13 -73 1 -92 -6 -9
-5 -12 1 -8 14 9 21 -57 17 -147 -2 -42 -9 -73 -16 -78 -10 -6 -10 -8 1 -8 11
0 11 -3 1 -15 -9 -11 -9 -15 -1 -15 9 0 9 -5 0 -21 -8 -16 -8 -20 1 -14 9 6 9
2 1 -14 -9 -16 -9 -21 0 -21 9 0 9 -3 0 -14 -9 -11 -9 -15 1 -19 10 -4 10 -7
-1 -15 -9 -6 -10 -11 -2 -13 18 -6 18 -233 0 -245 -5 -3 -9 -11 -9 -17 0 -7 4
-6 9 3 7 9 9 2 7 -23 -2 -21 -6 -40 -10 -44 -3 -3 -1 -12 5 -20 9 -10 8 -13
-2 -13 -10 0 -10 -3 -3 -8 6 -4 14 -35 17 -70 5 -70 5 -70 33 -75 10 -1 25 -7
33 -11 9 -6 12 -5 8 1 -5 7 6 11 29 11 25 0 33 -3 23 -9 -9 -6 -10 -9 -2 -9 6
0 15 5 18 10 3 6 15 10 25 10 14 0 18 -6 15 -21 -3 -12 -1 -18 3 -15 4 4 7 13
7 19 0 7 7 12 15 12 8 0 14 -6 12 -13 -1 -8 2 -11 8 -7 6 3 8 11 5 16 -4 5 3
9 15 9 12 0 18 -5 15 -10 -3 -6 -1 -10 4 -10 6 0 11 4 11 8 0 12 84 10 92 -2
5 -7 8 -7 8 3 0 7 6 11 15 7 15 -5 21 9 28 61 2 12 6 25 8 28 3 3 4 25 2 49
-2 25 1 47 6 51 8 4 8 12 1 26 -6 10 -10 36 -10 57 2 36 -7 93 -15 101 -3 2 3
10 13 18 16 12 16 13 0 7 -15 -5 -16 -2 -9 23 4 15 6 34 3 42 -3 10 0 12 14 7
15 -6 17 -5 6 5 -19 20 -15 118 6 143 15 18 15 19 0 8 -15 -12 -16 -9 -16 30
1 24 -1 50 -3 58 -2 9 2 14 9 12 8 -1 11 2 7 8 -3 6 -10 8 -15 5 -9 -6 -16 47
-12 88 2 15 8 25 13 22 5 -4 9 -1 9 4 0 6 -4 11 -9 11 -6 0 -6 12 -2 28 4 15
6 39 4 55 -3 20 1 27 14 28 15 0 15 2 3 7 -11 5 -15 22 -15 57 0 28 -3 63 -7
79 -5 19 -3 35 5 45 9 12 9 13 0 7 -8 -4 -13 -2 -14 6 -2 18 -2 16 6 83 10 83
7 246 -6 330 -3 15 11 107 17 117 3 5 9 6 13 4 4 -3 13 0 21 5 11 7 8 8 -11 5
l-25 -4 -2 97 c-2 117 -4 134 -17 143 -5 4 0 6 13 5 21 -1 32 -17 12 -17 -5 0
-10 -5 -10 -11 0 -8 5 -8 15 1 8 7 15 18 14 24 -4 30 3 39 12 17 7 -18 5 -28
-7 -43 -17 -18 -27 -91 -12 -82 4 3 8 12 8 20 0 8 5 14 10 14 6 0 10 5 10 11
0 8 -6 7 -17 -2 -15 -12 -16 -12 -10 4 4 10 7 21 7 23 0 2 10 3 23 1 12 -2 16
-2 10 0 -7 3 -13 8 -13 11 1 11 28 44 33 40 3 -2 8 0 12 4 9 9 -16 5 -32 -5
-8 -5 -13 -3 -13 6 0 9 9 13 28 11 15 -1 34 -3 42 -3 12 -1 11 -4 -3 -12 -13
-7 -15 -15 -8 -28 18 -33 4 -81 -14 -51 -3 6 -12 10 -18 10 -7 0 -3 -7 7 -15
11 -8 16 -15 12 -15 -5 0 -4 -6 1 -12 14 -19 15 -71 2 -63 -6 4 -5 -2 3 -14
11 -17 11 -25 0 -42 -10 -16 -11 -24 -2 -33 8 -8 9 -6 4 9 -4 11 -3 16 1 12
14 -13 15 -98 2 -91 -7 3 -4 -1 5 -9 13 -10 16 -23 12 -53 -3 -21 -8 -65 -11
-97 -5 -51 -7 -56 -22 -45 -10 8 -8 4 4 -10 15 -19 16 -25 6 -31 -7 -5 -9 -10
-4 -12 6 -2 12 -25 15 -51 3 -26 2 -45 -3 -42 -5 2 -2 -13 6 -35 7 -21 11 -42
7 -45 -3 -4 4 -9 16 -13 12 -3 19 -10 15 -16 -4 -6 -1 -7 8 -1 21 13 73 14 60
1 -13 -13 -15 -30 -2 -22 6 3 6 -8 1 -27 -5 -18 -9 -42 -9 -53 0 -11 0 -51 -1
-90 0 -38 3 -78 6 -89 4 -10 2 -16 -3 -13 -5 4 -10 0 -10 -8 0 -8 4 -12 9 -9
4 3 8 -3 9 -13 0 -10 2 -29 5 -42 3 -19 1 -22 -13 -17 -17 6 -17 5 0 -8 17
-13 25 -32 9 -22 -4 2 -8 -59 -9 -137 -1 -152 12 -253 31 -238 15 12 46 10 46
-3 0 -7 3 -7 8 -1 10 14 63 14 54 1 -3 -6 1 -6 9 1 15 12 43 12 55 0 4 -4 13
-2 21 4 10 9 13 8 13 -1 0 -8 4 -9 13 -3 6 6 24 9 40 8 15 -1 27 1 28 4 0 3 3
17 7 31 3 14 6 85 6 157 1 82 5 133 11 133 6 0 5 4 -2 8 -19 12 -24 67 -12
119 6 27 10 91 8 143 -1 52 -2 114 -3 137 0 23 -4 39 -9 36 -5 -3 -8 0 -5 7 5
17 49 21 67 6 11 -8 13 -8 7 2 -4 7 -2 12 8 12 17 0 26 23 28 73 1 27 5 34 17
30 11 -4 10 -1 -3 9 -19 15 -19 15 0 26 10 6 14 12 9 12 -6 0 -12 11 -13 26
-1 16 2 23 9 19 6 -4 5 1 -2 13 -7 12 -9 27 -4 38 15 35 15 64 -1 64 -10 0
-14 8 -12 23 2 13 9 21 18 19 8 -2 12 0 8 4 -4 4 0 14 10 22 12 10 9 9 -10 -2
-17 -10 -29 -12 -33 -6 -3 6 0 10 7 10 10 0 10 2 0 8 -8 6 -10 21 -6 48 7 48
12 56 26 48 7 -4 8 -2 4 5 -4 6 -12 9 -17 6 -5 -4 -9 -2 -9 4 0 5 6 12 13 14
8 4 8 6 -2 6 -11 1 -10 5 5 17 10 8 13 13 7 9 -8 -4 -13 0 -13 10 0 10 5 13
13 9 7 -5 7 -1 -2 10 -13 15 -13 19 0 27 9 5 9 9 2 9 -6 0 -11 13 -11 29 1 15
-2 33 -6 40 -4 6 -2 11 3 11 6 0 11 -5 11 -12 0 -6 3 -8 7 -5 3 4 -1 15 -9 24
-9 10 -18 36 -20 58 l-5 40 66 -1 c60 0 66 -2 69 -22 2 -12 -1 -22 -7 -22 -5
0 -8 8 -6 18 2 11 -3 19 -11 19 -8 0 -14 -4 -14 -9 0 -5 -5 -6 -12 -2 -7 4 -8
3 -4 -4 4 -6 12 -9 20 -6 7 3 13 -2 13 -11 0 -9 -6 -14 -14 -11 -7 3 -13 1
-13 -5 0 -7 10 -9 25 -5 31 8 33 -1 3 -14 -16 -6 -18 -9 -6 -9 12 -1 16 -10
15 -37 -1 -32 -2 -34 -14 -18 -7 10 -13 13 -13 8 0 -6 6 -16 12 -22 7 -7 13
-26 14 -43 2 -26 0 -28 -15 -17 -12 9 -11 7 2 -9 10 -12 18 -34 17 -50 -1 -15
-1 -30 0 -33 8 -25 7 -66 -3 -72 -8 -5 -6 -8 6 -8 10 0 16 -3 14 -7 -12 -20
-19 -98 -18 -205 0 -106 -1 -117 -17 -112 -9 2 -7 -1 6 -7 15 -8 22 -22 23
-43 2 -56 -3 -91 -13 -97 -6 -4 -5 -9 3 -12 8 -3 9 -6 3 -6 -8 -1 -10 -18 -7
-52 3 -33 0 -56 -9 -67 -8 -9 -8 -13 -1 -9 7 5 11 -5 11 -31 -1 -50 9 -142 15
-149 3 -3 4 -10 2 -16 -16 -48 -25 -226 -14 -269 4 -16 3 -30 -2 -34 -6 -4 -6
-11 1 -19 11 -13 15 -91 6 -130 -2 -11 -5 -26 -5 -33 -1 -8 -6 -10 -13 -6 -10
6 -10 4 0 -8 8 -11 11 -45 10 -112 -2 -53 1 -96 5 -96 4 0 6 -17 4 -38 -3 -32
-1 -38 16 -39 11 -1 24 -8 28 -15 7 -10 9 -10 9 0 0 6 5 12 11 12 5 0 7 -6 3
-13 -5 -7 -1 -7 10 2 15 13 19 13 27 0 5 -8 9 -9 9 -4 0 15 100 16 100 2 0 -8
3 -7 9 2 6 9 10 10 16 2 5 -9 10 -9 21 0 12 10 18 8 29 -7 13 -16 14 -17 9 -1
-7 20 6 22 25 5 11 -10 13 -10 7 0 -4 6 -3 12 3 12 5 0 12 -6 14 -12 4 -10 6
-10 6 0 1 7 14 12 31 12 17 0 31 6 32 13 0 6 2 17 3 22 2 6 3 32 4 58 1 34 4
46 13 41 7 -5 8 -3 2 7 -12 19 -12 30 -2 51 6 12 5 18 -2 18 -7 0 -7 6 0 21 8
14 8 24 1 33 -7 9 -7 16 2 26 9 10 9 11 0 6 -8 -4 -13 -1 -13 8 0 9 6 16 13
17 6 0 3 4 -8 9 -11 5 -14 9 -6 9 9 1 10 5 3 14 -12 16 -5 156 9 174 8 9 8 13
0 13 -13 0 -10 42 4 52 6 5 4 8 -5 8 -13 0 -13 1 0 10 13 9 13 10 0 10 -13 0
-13 1 0 10 12 8 12 10 1 10 -11 0 -11 3 0 17 8 9 9 14 3 10 -7 -4 -11 4 -12
21 0 15 -2 34 -4 42 -2 8 2 14 8 13 6 -1 11 4 11 12 0 7 -6 11 -14 8 -7 -3
-13 2 -13 12 0 9 4 14 9 10 5 -3 13 -1 16 5 4 6 1 9 -7 8 -9 -2 -13 7 -12 27
2 40 11 82 20 96 5 8 3 9 -5 5 -15 -10 -11 25 4 36 7 5 7 10 0 15 -15 12 -17
31 -4 55 6 11 7 18 1 14 -5 -3 -10 6 -10 22 1 15 -2 44 -5 65 -5 28 -3 36 6
30 9 -5 9 -3 1 8 -15 18 -8 121 9 131 7 4 8 8 1 8 -11 0 -12 79 0 98 4 7 1 12
-6 12 -10 0 -10 2 1 9 11 7 11 9 0 14 -12 4 -11 7 1 16 12 8 12 11 1 11 -11 0
-11 3 0 17 8 9 9 14 3 10 -15 -9 -22 37 -17 116 2 34 4 76 5 94 1 20 5 30 12
26 6 -4 5 0 -2 9 -10 13 -10 17 0 21 9 4 10 8 3 14 -13 10 -13 73 -1 92 6 9 5
12 -1 8 -14 -9 -21 56 -17 147 2 43 7 72 16 77 11 7 10 9 -1 9 -11 0 -11 3 -1
15 9 11 9 15 1 15 -9 0 -9 5 0 21 8 16 8 20 -1 14 -9 -6 -9 -2 -1 14 9 16 9
21 0 21 -9 0 -9 3 0 14 9 11 9 15 -1 19 -10 4 -10 8 2 16 12 8 12 11 1 11 -11
0 -11 3 0 17 8 9 9 14 3 10 -7 -4 -14 7 -18 31 -9 55 -8 64 7 56 8 -5 8 -2 -2
9 -11 14 -11 17 0 17 11 0 11 2 2 8 -9 6 -10 17 -5 38 5 16 8 73 7 127 0 61 3
97 10 97 5 0 4 4 -3 9 -8 4 -14 28 -15 53 -2 42 -4 45 -26 41 -12 -2 -30 2
-39 9 -13 10 -14 10 -8 0 5 -9 -1 -12 -23 -10 -17 1 -31 7 -31 13 0 7 -3 7 -8
-1 -9 -12 -111 -13 -131 0 -9 6 -12 5 -8 0 3 -6 -5 -10 -18 -10 -13 0 -22 3
-19 7 5 9 -17 6 -33 -4 -8 -5 -13 -3 -13 5 0 9 -3 9 -8 2 -4 -6 -28 -11 -54
-11 -95 -2 -93 -1 -96 -29 -1 -15 -8 -34 -15 -42 -10 -13 -9 -14 2 -7 10 6 12
4 6 -5 -5 -8 -8 -58 -7 -112 1 -75 -2 -97 -11 -91 -7 4 -7 0 2 -10 18 -22 26
-93 12 -102 -6 -3 -11 1 -11 9 0 8 -4 17 -9 20 -5 4 -7 -4 -4 -16 4 -22 4 -22
-12 2 -15 24 -16 24 -10 2 7 -23 -12 -28 -27 -7 -5 6 -8 6 -8 -2 0 -7 -10 -10
-24 -7 -36 6 -45 -31 -47 -178 0 -45 -4 -68 -12 -68 -8 0 -7 -4 2 -9 8 -5 11
-16 8 -25 -3 -8 -2 -18 4 -22 7 -4 5 -12 -5 -23 -11 -12 -12 -20 -5 -31 9 -13
10 -12 5 2 -3 10 -1 20 3 23 9 5 20 -44 14 -62 -2 -6 -13 -9 -23 -6 -11 3 -17
10 -14 15 3 5 -3 4 -15 -4 -12 -7 -21 -20 -21 -28 0 -9 -6 -22 -12 -29 -11
-11 -10 -12 2 -6 13 8 13 6 1 -8 -7 -9 -18 -14 -24 -10 -6 3 -7 1 -3 -6 4 -6
11 -9 15 -7 4 3 8 -15 7 -39 0 -25 -4 -45 -9 -45 -4 0 -5 -5 -1 -12 4 -6 8
-24 8 -40 1 -23 -2 -27 -19 -22 -18 5 -18 4 3 -11 12 -9 22 -21 22 -28 0 -8
-3 -8 -12 1 -7 7 -16 12 -21 12 -5 0 0 -8 12 -17 13 -12 22 -34 25 -63 l6 -46
-70 -1 c-39 0 -70 3 -70 8 0 5 6 6 14 3 8 -3 23 -1 34 5 15 8 21 8 24 0 2 -6
9 0 16 15 7 15 8 26 2 26 -6 0 -10 -8 -10 -17 0 -15 -2 -16 -10 -3 -6 10 -10
11 -10 3 0 -7 -5 -13 -11 -13 -5 0 -7 5 -4 10 3 6 1 10 -5 10 -7 0 -10 -7 -6
-15 6 -16 -3 -19 -19 -7 -13 9 -19 35 -6 28 5 -4 12 -2 16 4 3 5 2 10 -3 10
-4 0 -8 22 -8 50 1 42 4 49 18 44 20 -6 33 12 17 22 -8 5 -9 3 -4 -6 5 -8 3
-11 -6 -8 -8 3 -13 13 -13 22 1 9 -1 16 -5 16 -4 0 -8 13 -8 30 0 16 5 27 10
23 5 -3 4 5 -3 17 -11 21 -10 22 9 17 12 -3 19 -1 15 4 -3 5 -11 9 -19 9 -9 0
-16 16 -20 44 -6 36 -11 45 -31 49 -13 2 -24 0 -24 -6 0 -6 -3 -8 -6 -4 -10
10 -13 97 -3 98 5 1 13 2 18 3 5 0 13 4 17 8 3 4 -3 6 -15 3 -13 -2 -21 1 -21
11 0 13 12 19 33 15 5 -1 6 3 2 8 -3 6 -12 8 -20 5 -11 -4 -14 10 -15 73 -1
43 -3 92 -4 108 -3 29 -24 89 -25 71 -1 -5 -7 -3 -15 3 -11 9 -16 9 -21 0 -6
-8 -10 -7 -16 2 -7 11 -9 11 -9 -1 0 -13 -1 -13 -10 0 -5 8 -10 10 -10 4 0 -6
-10 -10 -22 -9 -19 1 -23 8 -24 33 -1 18 2 32 5 32 3 0 5 27 4 61 -1 52 1 60
15 55 15 -6 15 -5 1 6 -17 14 -20 73 -5 97 6 10 6 12 -2 7 -10 -6 -19 24 -25
84 -3 23 -16 28 -54 23 -28 -4 -34 -2 -27 9 6 10 4 10 -10 -1 -15 -13 -19 -13
-27 0 -5 8 -9 10 -9 4 0 -6 -32 -10 -75 -11 -58 0 -72 2 -64 12 7 8 7 14 -1
19 -6 4 -9 1 -8 -5z m208 -834 c0 -11 -19 -15 -25 -6 -3 5 1 10 9 10 9 0 16
-2 16 -4z m640 -516 c0 -5 -2 -10 -4 -10 -3 0 -8 5 -11 10 -3 6 -1 10 4 10 6
0 11 -4 11 -10z"/>
<path d="M2210 3019 c0 -5 5 -7 10 -4 6 3 10 8 10 11 0 2 -4 4 -10 4 -5 0 -10
-5 -10 -11z"/>
<path d="M747 2799 c7 -7 15 -10 18 -7 3 3 -2 9 -12 12 -14 6 -15 5 -6 -5z"/>
<path d="M1850 2761 c0 -6 4 -13 10 -16 6 -3 7 1 4 9 -7 18 -14 21 -14 7z"/>
<path d="M747 2719 c7 -7 15 -10 18 -7 3 3 -2 9 -12 12 -14 6 -15 5 -6 -5z"/>
<path d="M1353 2715 c0 -8 4 -12 9 -9 5 3 6 10 3 15 -9 13 -12 11 -12 -6z"/>
<path d="M1810 2700 c0 -5 5 -10 11 -10 5 0 7 5 4 10 -3 6 -8 10 -11 10 -2 0
-4 -4 -4 -10z"/>
<path d="M1353 2671 c0 -11 5 -18 9 -15 4 3 5 11 1 19 -7 21 -12 19 -10 -4z"/>
<path d="M1809 2643 c-13 -16 -12 -17 4 -4 9 7 17 15 17 17 0 8 -8 3 -21 -13z"/>
<path d="M1331 2638 c-1 -21 15 -32 25 -17 4 7 3 9 -4 5 -6 -3 -13 2 -15 11
-4 16 -5 16 -6 1z"/>
<path d="M756 2593 c-6 -14 -5 -15 5 -6 7 7 10 15 7 18 -3 3 -9 -2 -12 -12z"/>
<path d="M775 2549 c-4 -6 -5 -12 -2 -15 2 -3 7 2 10 11 7 17 1 20 -8 4z"/>
<path d="M760 2400 c-9 -6 -10 -10 -3 -10 6 0 15 5 18 10 8 12 4 12 -15 0z"/>
<path d="M1695 2380 c3 -5 8 -10 11 -10 2 0 4 5 4 10 0 6 -5 10 -11 10 -5 0
-7 -4 -4 -10z"/>
<path d="M1586 2322 c-3 -5 1 -9 9 -9 8 0 15 4 15 9 0 4 -4 8 -9 8 -6 0 -12
-4 -15 -8z"/>
<path d="M1526 2258 c3 -5 10 -6 15 -3 13 9 11 12 -6 12 -8 0 -12 -4 -9 -9z"/>
<path d="M1554 2222 c4 -3 14 -7 22 -8 9 -1 13 0 10 4 -4 3 -14 7 -22 8 -9 1
-13 0 -10 -4z"/>
<path d="M775 2171 c-3 -5 -2 -12 3 -15 5 -3 9 1 9 9 0 17 -3 19 -12 6z"/>
<path d="M1913 2162 c0 -12 5 -22 9 -22 11 0 10 12 -2 30 -7 12 -9 10 -7 -8z"/>
<path d="M1595 2161 c-3 -5 -2 -12 3 -15 5 -3 9 1 9 9 0 17 -3 19 -12 6z"/>
<path d="M2415 2160 c-2 -3 5 -7 16 -7 10 -1 19 2 19 6 0 9 -29 10 -35 1z"/>
<path d="M1295 2150 c-3 -5 -1 -10 4 -10 6 0 11 5 11 10 0 6 -2 10 -4 10 -3 0
-8 -4 -11 -10z"/>
<path d="M1890 2151 c0 -7 -4 -9 -10 -6 -5 3 -10 1 -10 -4 0 -6 4 -11 9 -11
13 0 25 20 17 27 -3 4 -6 1 -6 -6z"/>
<path d="M1555 2140 c3 -5 8 -10 11 -10 2 0 4 5 4 10 0 6 -5 10 -11 10 -5 0
-7 -4 -4 -10z"/>
<path d="M1315 2120 c3 -5 8 -10 11 -10 2 0 4 5 4 10 0 6 -5 10 -11 10 -5 0
-7 -4 -4 -10z"/>
<path d="M1920 2110 c11 -11 22 -20 25 -20 3 0 0 9 -7 20 -7 11 -18 20 -25 20
-8 0 -5 -8 7 -20z"/>
<path d="M2433 2115 c0 -8 4 -12 9 -9 5 3 6 10 3 15 -9 13 -12 11 -12 -6z"/>
<path d="M1593 2092 c0 -10 7 -19 14 -19 9 0 10 4 3 12 -5 7 -7 15 -3 18 3 4
1 7 -5 7 -6 0 -10 -8 -9 -18z"/>
<path d="M1895 2100 c3 -5 11 -10 16 -10 6 0 7 5 4 10 -3 6 -11 10 -16 10 -6
0 -7 -4 -4 -10z"/>
<path d="M1277 2083 c-11 -11 -8 -23 6 -23 7 0 13 -9 14 -21 2 -20 1 -20 -16
-5 -10 9 -22 16 -27 16 -4 0 3 -8 16 -17 14 -10 27 -17 30 -15 11 5 6 44 -6
49 -8 3 -11 9 -8 14 6 11 0 12 -9 2z"/>
<path d="M1911 2071 c-17 -11 -25 -48 -12 -56 5 -3 13 0 17 6 5 8 3 9 -5 5 -8
-6 -11 -2 -9 10 2 11 12 24 23 31 11 7 16 12 10 12 -5 1 -16 -3 -24 -8z"/>
<path d="M1633 2055 c0 -8 4 -12 9 -9 5 3 6 10 3 15 -9 13 -12 11 -12 -6z"/>
<path d="M1605 2043 c-11 -24 -17 -58 -9 -51 3 3 6 12 8 20 1 7 5 19 10 26 4
7 6 15 3 18 -2 3 -8 -3 -12 -13z"/>
<path d="M1560 2035 c-11 -13 -10 -14 4 -9 9 3 16 10 16 15 0 13 -6 11 -20 -6z"/>
<path d="M1928 2042 c8 -5 13 -13 12 -18 0 -5 7 -10 17 -11 17 -3 17 -2 0 5
-10 4 -18 12 -17 17 1 5 -4 11 -12 13 -11 3 -11 2 0 -6z"/>
<path d="M1230 2021 c0 -6 7 -7 17 -4 10 4 14 2 9 -5 -3 -6 3 -16 14 -22 13
-7 20 -7 20 0 0 5 -7 10 -15 10 -8 0 -14 5 -12 12 1 6 -6 14 -15 16 -10 2 -18
-1 -18 -7z"/>
<path d="M1617 1995 c-4 -8 -1 -17 5 -21 7 -4 8 -3 4 4 -4 7 -2 12 3 12 6 0
11 5 11 10 0 15 -17 12 -23 -5z"/>
<path d="M1236 1974 c3 -35 12 -41 12 -9 0 14 -4 27 -8 30 -4 2 -6 -7 -4 -21z"/>
<path d="M1895 1991 c-9 -15 13 -23 32 -11 15 9 14 10 -6 4 -16 -4 -21 -3 -17
5 4 6 5 11 2 11 -3 0 -7 -4 -11 -9z"/>
<path d="M1263 1964 c8 -9 47 -13 51 -6 2 4 -9 8 -25 8 -17 1 -28 0 -26 -2z"/>
<path d="M1596 1962 c-2 -4 -1 -14 4 -22 7 -11 9 -9 7 8 -1 24 -3 26 -11 14z"/>
<path d="M1936 1955 c4 -8 8 -15 10 -15 2 0 4 7 4 15 0 8 -4 15 -10 15 -5 0
-7 -7 -4 -15z"/>
<path d="M1559 1933 c-13 -16 -12 -17 4 -4 15 12 17 11 18 -10 1 -19 2 -20 6
-5 7 27 -11 40 -28 19z"/>
<path d="M1900 1946 c0 -2 7 -6 15 -10 8 -3 15 -1 15 4 0 6 -7 10 -15 10 -8 0
-15 -2 -15 -4z"/>
<path d="M1959 1943 c0 -5 -3 -19 -5 -32 -2 -14 -2 -22 1 -19 8 8 17 58 10 58
-3 0 -5 -3 -6 -7z"/>
<path d="M1902 1916 c7 -8 15 -12 17 -11 5 6 -10 25 -20 25 -5 0 -4 -6 3 -14z"/>
<path d="M1267 1907 c-17 -12 -16 -13 7 -12 14 1 29 5 33 10 5 4 3 5 -4 2 -6
-4 -13 -2 -15 3 -2 7 -10 6 -21 -3z"/>
<path d="M1596 1885 c-16 -14 -25 -25 -19 -25 13 0 58 39 52 45 -3 2 -18 -7
-33 -20z"/>
<path d="M1230 1891 c0 -6 4 -13 10 -16 6 -3 7 1 4 9 -7 18 -14 21 -14 7z"/>
<path d="M1310 1879 c0 -5 5 -7 10 -4 6 3 10 8 10 11 0 2 -4 4 -10 4 -5 0 -10
-5 -10 -11z"/>
<path d="M1630 1880 c-13 -8 -12 -10 3 -10 9 0 17 5 17 10 0 12 -1 12 -20 0z"/>
<path d="M1955 1870 c-3 -5 -1 -10 4 -10 6 0 11 5 11 10 0 6 -2 10 -4 10 -3 0
-8 -4 -11 -10z"/>
<path d="M1255 1860 c-3 -6 2 -13 12 -17 10 -3 21 -8 25 -10 4 -2 5 3 2 11 -3
9 -12 12 -21 9 -11 -4 -14 -2 -9 5 4 7 5 12 2 12 -3 0 -8 -5 -11 -10z"/>
<path d="M1870 1860 c0 -5 7 -7 15 -4 8 4 15 8 15 10 0 2 -7 4 -15 4 -8 0 -15
-4 -15 -10z"/>
<path d="M1640 1841 c-13 -25 -13 -28 3 -28 6 0 12 11 12 24 0 28 -1 28 -15 4z"/>
<path d="M1224 1839 c-4 -7 -3 -9 4 -5 5 3 13 0 15 -6 4 -9 6 -10 6 -1 1 17
-16 25 -25 12z"/>
<path d="M1890 1839 c0 -5 5 -7 10 -4 6 3 10 8 10 11 0 2 -4 4 -10 4 -5 0 -10
-5 -10 -11z"/>
<path d="M1920 1835 c-19 -22 -8 -25 13 -3 9 10 13 18 8 18 -5 0 -14 -7 -21
-15z"/>
<path d="M2416 1842 c-3 -4 4 -9 15 -9 23 -2 25 3 4 10 -8 4 -16 3 -19 -1z"/>
<path d="M1935 1819 c-6 -8 -4 -10 5 -4 9 5 10 1 6 -16 -6 -21 -6 -22 5 -6 7
13 8 22 1 29 -6 6 -12 6 -17 -3z"/>
<path d="M1326 1805 c-9 -26 -7 -32 5 -12 6 10 9 21 6 23 -2 3 -7 -2 -11 -11z"/>
<path d="M1886 1803 c-6 -14 -5 -15 5 -6 7 7 10 15 7 18 -3 3 -9 -2 -12 -12z"/>
<path d="M1276 1795 c-16 -12 -17 -15 -4 -15 9 0 18 7 22 15 7 18 6 18 -18 0z"/>
<path d="M2433 1795 c0 -8 4 -12 9 -9 5 3 6 10 3 15 -9 13 -12 11 -12 -6z"/>
<path d="M1228 1793 c6 -2 9 -10 6 -15 -4 -7 -2 -8 5 -4 13 9 5 26 -12 25 -9
0 -8 -2 1 -6z"/>
<path d="M1911 1767 c-13 -21 -12 -21 5 -5 10 10 16 20 13 22 -3 3 -11 -5 -18
-17z"/>
<path d="M1240 1755 c-19 -22 -8 -25 13 -3 9 10 13 18 8 18 -5 0 -14 -7 -21
-15z"/>
<path d="M1940 1760 c-8 -5 -10 -10 -5 -10 6 0 17 5 25 10 8 5 11 10 5 10 -5
0 -17 -5 -25 -10z"/>
<path d="M1270 1740 c0 -5 5 -12 10 -15 6 -3 10 -1 10 5 0 6 6 8 13 4 6 -4 8
-3 4 1 -10 12 -37 15 -37 5z"/>
<path d="M1955 1741 c-3 -5 -2 -12 3 -15 5 -3 9 1 9 9 0 17 -3 19 -12 6z"/>
<path d="M1246 1723 c-6 -14 -5 -15 5 -6 7 7 10 15 7 18 -3 3 -9 -2 -12 -12z"/>
<path d="M1910 1730 c0 -5 7 -7 15 -4 8 4 15 8 15 10 0 2 -7 4 -15 4 -8 0 -15
-4 -15 -10z"/>
<path d="M1245 1697 c-15 -12 -16 -15 -4 -22 8 -5 11 -5 7 0 -4 4 0 14 10 21
23 18 11 18 -13 1z"/>
<path d="M1912 1691 c-11 -6 -10 -10 4 -15 9 -3 19 -4 22 -1 3 3 0 5 -7 5 -7
0 -9 5 -6 10 7 12 4 12 -13 1z"/>
<path d="M1266 1681 c-4 -5 3 -7 14 -4 23 6 26 13 6 13 -8 0 -17 -4 -20 -9z"/>
<path d="M1950 1660 c0 -5 5 -10 10 -10 6 0 10 5 10 10 0 6 -4 10 -10 10 -5 0
-10 -4 -10 -10z"/>
<path d="M1230 1645 c0 -8 4 -15 10 -15 5 0 7 7 4 15 -4 8 -8 15 -10 15 -2 0
-4 -7 -4 -15z"/>
<path d="M1270 1650 c0 -5 5 -10 11 -10 5 0 7 5 4 10 -3 6 -8 10 -11 10 -2 0
-4 -4 -4 -10z"/>
<path d="M1885 1640 c-3 -6 1 -7 9 -4 18 7 21 14 7 14 -6 0 -13 -4 -16 -10z"/>
<path d="M1924 1635 c-4 -8 -10 -13 -14 -10 -5 3 -12 0 -16 -6 -4 -7 -3 -9 4
-5 5 3 12 1 14 -5 2 -6 9 0 16 15 6 14 9 26 6 26 -2 0 -7 -7 -10 -15z"/>
<path d="M1280 1626 c0 -2 7 -7 16 -10 8 -3 12 -2 9 4 -6 10 -25 14 -25 6z"/>
<path d="M1268 1603 c7 -3 16 -2 19 1 4 3 -2 6 -13 5 -11 0 -14 -3 -6 -6z"/>
<path d="M1930 1605 c0 -7 30 -13 34 -7 3 4 -4 9 -15 9 -10 1 -19 0 -19 -2z"/>
<path d="M1236 1583 c-6 -14 -5 -15 5 -6 7 7 10 15 7 18 -3 3 -9 -2 -12 -12z"/>
<path d="M1301 1570 c14 -31 19 -36 19 -24 0 6 -7 19 -16 30 -14 18 -14 18 -3
-6z"/>
<path d="M1895 1580 c-7 -11 22 -26 32 -16 4 3 -1 6 -11 6 -9 0 -14 5 -11 10
3 6 4 10 1 10 -3 0 -8 -5 -11 -10z"/>
<path d="M1920 1586 c0 -2 7 -7 16 -10 8 -3 12 -2 9 4 -6 10 -25 14 -25 6z"/>
<path d="M1959 1573 c0 -5 -2 -16 -4 -25 -2 -10 0 -18 5 -18 4 0 8 11 8 25 0
22 -7 36 -9 18z"/>
<path d="M1270 1559 c0 -5 5 -7 10 -4 6 3 10 8 10 11 0 2 -4 4 -10 4 -5 0 -10
-5 -10 -11z"/>
<path d="M1241 1530 c14 -31 19 -36 19 -24 0 6 -7 19 -16 30 -14 18 -14 18 -3
-6z"/>
<path d="M2460 1526 c0 -2 8 -10 18 -17 15 -13 16 -12 3 4 -13 16 -21 21 -21
13z"/>
<path d="M1280 1500 c-12 -7 -10 -9 7 -7 12 0 19 5 17 9 -6 10 -6 10 -24 -2z"/>
<path d="M1908 1503 c7 -3 16 -2 19 1 4 3 -2 6 -13 5 -11 0 -14 -3 -6 -6z"/>
<path d="M1230 1479 c0 -5 5 -7 10 -4 6 3 10 8 10 11 0 2 -4 4 -10 4 -5 0 -10
-5 -10 -11z"/>
<path d="M1280 1476 c0 -2 7 -7 16 -10 8 -3 12 -2 9 4 -6 10 -25 14 -25 6z"/>
<path d="M1917 1448 c19 -21 31 -25 14 -5 -6 8 -9 16 -6 19 3 2 -2 5 -10 5
-13 0 -13 -3 2 -19z"/>
<path d="M1875 1440 c3 -5 8 -10 11 -10 2 0 4 5 4 10 0 6 -5 10 -11 10 -5 0
-7 -4 -4 -10z"/>
<path d="M1971 1434 c0 -11 3 -14 6 -6 3 7 2 16 -1 19 -3 4 -6 -2 -5 -13z"/>
<path d="M1224 1408 c0 -16 2 -16 18 -1 10 9 18 17 18 17 0 1 -8 2 -18 2 -10
0 -18 -8 -18 -18z"/>
<path d="M1270 1426 c0 -2 7 -7 16 -10 8 -3 12 -2 9 4 -6 10 -25 14 -25 6z"/>
<path d="M1876 1407 c3 -10 9 -15 12 -12 3 3 0 11 -7 18 -10 9 -11 8 -5 -6z"/>
<path d="M755 1401 c-3 -5 -2 -12 3 -15 5 -3 9 1 9 9 0 17 -3 19 -12 6z"/>
<path d="M1259 1393 c-12 -16 -12 -17 2 -6 9 7 20 9 24 5 5 -4 5 -1 1 6 -9 16
-11 15 -27 -5z"/>
<path d="M1915 1390 c10 -11 20 -20 23 -20 3 0 -3 9 -13 20 -10 11 -20 20 -23
20 -3 0 3 -9 13 -20z"/>
<path d="M1953 1393 c0 -11 7 -20 14 -20 10 0 10 4 1 16 -7 9 -13 18 -15 20
-1 2 -1 -5 0 -16z"/>
<path d="M1329 1363 c-13 -16 -12 -17 4 -4 9 7 17 15 17 17 0 8 -8 3 -21 -13z"/>
<path d="M1255 1359 c-3 -4 2 -6 10 -5 21 3 28 13 10 13 -9 0 -18 -4 -20 -8z"/>
<path d="M1370 1361 c0 -6 4 -13 10 -16 6 -3 7 1 4 9 -7 18 -14 21 -14 7z"/>
<path d="M1790 1341 c0 -6 4 -12 8 -15 5 -3 9 1 9 9 0 8 -4 15 -9 15 -4 0 -8
-4 -8 -9z"/>
<path d="M1275 1329 c-4 -6 -5 -12 -2 -15 2 -3 7 2 10 11 7 17 1 20 -8 4z"/>
<path d="M1893 1305 c0 -8 4 -12 9 -9 5 3 6 10 3 15 -9 13 -12 11 -12 -6z"/>
<path d="M1796 1278 c3 -5 10 -6 15 -3 13 9 11 12 -6 12 -8 0 -12 -4 -9 -9z"/>
<path d="M1789 1258 c7 -9 9 -23 5 -30 -6 -10 -4 -11 7 0 11 10 10 15 -6 30
-17 15 -18 15 -6 0z"/>
<path d="M1859 1268 c-5 -18 -6 -38 -1 -34 7 8 12 36 6 36 -2 0 -4 -1 -5 -2z"/>
<path d="M1380 1246 c0 -2 8 -10 18 -17 15 -13 16 -12 3 4 -13 16 -21 21 -21
13z"/>
<path d="M1956 1223 c-6 -14 -5 -15 5 -6 7 7 10 15 7 18 -3 3 -9 -2 -12 -12z"/>
<path d="M1270 1225 c0 -7 30 -13 34 -7 3 4 -4 9 -15 9 -10 1 -19 0 -19 -2z"/>
<path d="M1376 1182 c-3 -5 1 -9 9 -9 8 0 12 4 9 9 -3 4 -7 8 -9 8 -2 0 -6 -4
-9 -8z"/>
<path d="M1395 1129 c-4 -6 -5 -12 -2 -15 2 -3 7 2 10 11 7 17 1 20 -8 4z"/>
<path d="M1805 1120 c10 -11 20 -20 23 -20 3 0 -3 9 -13 20 -10 11 -20 20 -23
20 -3 0 3 -9 13 -20z"/>
<path d="M1830 1136 c0 -2 8 -10 18 -17 15 -13 16 -12 3 4 -13 16 -21 21 -21
13z"/>
<path d="M1890 1119 c0 -5 5 -7 10 -4 6 3 10 8 10 11 0 2 -4 4 -10 4 -5 0 -10
-5 -10 -11z"/>
<path d="M1935 1100 c3 -5 8 -10 11 -10 2 0 4 5 4 10 0 6 -5 10 -11 10 -5 0
-7 -4 -4 -10z"/>
<path d="M1876 1078 c3 -5 10 -6 15 -3 13 9 11 12 -6 12 -8 0 -12 -4 -9 -9z"/>
<path d="M1935 1060 c-3 -5 -1 -10 4 -10 6 0 11 5 11 10 0 6 -2 10 -4 10 -3 0
-8 -4 -11 -10z"/>
<path d="M1376 1047 c3 -10 9 -15 12 -12 3 3 0 11 -7 18 -10 9 -11 8 -5 -6z"/>
<path d="M1414 1049 c-3 -6 -2 -15 3 -20 5 -5 9 -1 9 11 0 23 -2 24 -12 9z"/>
<path d="M750 1045 c0 -7 30 -13 34 -7 3 4 -4 9 -15 9 -10 1 -19 0 -19 -2z"/>
<path d="M1776 1033 c-6 -14 -5 -15 5 -6 7 7 10 15 7 18 -3 3 -9 -2 -12 -12z"/>
<path d="M1809 1037 c6 -8 7 -18 3 -22 -4 -5 -1 -5 6 -1 10 6 10 11 1 22 -6 8
-14 14 -16 14 -3 0 0 -6 6 -13z"/>
<path d="M1930 1019 c0 -5 5 -7 10 -4 6 3 10 8 10 11 0 2 -4 4 -10 4 -5 0 -10
-5 -10 -11z"/>
<path d="M1250 979 c0 -5 5 -7 10 -4 6 3 10 8 10 11 0 2 -4 4 -10 4 -5 0 -10
-5 -10 -11z"/>
<path d="M1374 976 c1 -8 5 -18 8 -22 4 -3 5 1 4 10 -1 8 -5 18 -8 22 -4 3 -5
-1 -4 -10z"/>
<path d="M1810 981 c0 -6 4 -13 10 -16 6 -3 7 1 4 9 -7 18 -14 21 -14 7z"/>
<path d="M1935 980 c3 -5 8 -10 11 -10 2 0 4 5 4 10 0 6 -5 10 -11 10 -5 0 -7
-4 -4 -10z"/>
<path d="M1356 927 c3 -10 9 -15 12 -12 3 3 0 11 -7 18 -10 9 -11 8 -5 -6z"/>
<path d="M1395 920 c-3 -5 -1 -10 4 -10 6 0 11 5 11 10 0 6 -2 10 -4 10 -3 0
-8 -4 -11 -10z"/>
<path d="M1806 902 c-3 -5 1 -9 9 -9 8 0 12 4 9 9 -3 4 -7 8 -9 8 -2 0 -6 -4
-9 -8z"/>
<path d="M1400 880 c-9 -6 -10 -10 -3 -10 6 0 15 5 18 10 8 12 4 12 -15 0z"/>
<path d="M1915 869 c-4 -6 -5 -12 -2 -15 2 -3 7 2 10 11 7 17 1 20 -8 4z"/>
<path d="M1266 838 c3 -5 10 -6 15 -3 13 9 11 12 -6 12 -8 0 -12 -4 -9 -9z"/>
<path d="M1935 820 c-3 -5 -1 -10 4 -10 6 0 11 5 11 10 0 6 -2 10 -4 10 -3 0
-8 -4 -11 -10z"/>
<path d="M1236 793 c-6 -14 -5 -15 5 -6 7 7 10 15 7 18 -3 3 -9 -2 -12 -12z"/>
<path d="M1276 798 c3 -5 10 -6 15 -3 13 9 11 12 -6 12 -8 0 -12 -4 -9 -9z"/>
<path d="M1350 801 c0 -6 4 -13 10 -16 6 -3 7 1 4 9 -7 18 -14 21 -14 7z"/>
<path d="M1400 800 c-9 -6 -10 -10 -3 -10 6 0 15 5 18 10 8 12 4 12 -15 0z"/>
<path d="M1780 806 c0 -2 8 -10 18 -17 15 -13 16 -12 3 4 -13 16 -21 21 -21
13z"/>
<path d="M1820 806 c0 -2 8 -10 18 -17 15 -13 16 -12 3 4 -13 16 -21 21 -21
13z"/>
<path d="M1235 760 c3 -5 8 -10 11 -10 2 0 4 5 4 10 0 6 -5 10 -11 10 -5 0 -7
-4 -4 -10z"/>
<path d="M1816 738 c3 -5 10 -6 15 -3 13 9 11 12 -6 12 -8 0 -12 -4 -9 -9z"/>
<path d="M1936 738 c3 -5 10 -6 15 -3 13 9 11 12 -6 12 -8 0 -12 -4 -9 -9z"/>
<path d="M1233 725 c0 -8 4 -12 9 -9 5 3 6 10 3 15 -9 13 -12 11 -12 -6z"/>
<path d="M719 713 c-13 -16 -12 -17 4 -4 16 13 21 21 13 21 -2 0 -10 -8 -17
-17z"/>
<path d="M1355 721 c-3 -5 -2 -12 3 -15 5 -3 9 1 9 9 0 17 -3 19 -12 6z"/>
<path d="M755 620 c-3 -5 -1 -10 4 -10 6 0 11 5 11 10 0 6 -2 10 -4 10 -3 0
-8 -4 -11 -10z"/>
<path d="M1246 622 c-3 -5 1 -9 9 -9 8 0 12 4 9 9 -3 4 -7 8 -9 8 -2 0 -6 -4
-9 -8z"/>
<path d="M1935 620 c3 -5 8 -10 11 -10 2 0 4 5 4 10 0 6 -5 10 -11 10 -5 0 -7
-4 -4 -10z"/>
<path d="M1956 582 c-3 -5 1 -9 9 -9 8 0 12 4 9 9 -3 4 -7 8 -9 8 -2 0 -6 -4
-9 -8z"/>
<path d="M1936 513 c-6 -14 -5 -15 5 -6 7 7 10 15 7 18 -3 3 -9 -2 -12 -12z"/>
<path d="M1235 500 c-3 -5 -1 -10 4 -10 6 0 11 5 11 10 0 6 -2 10 -4 10 -3 0
-8 -4 -11 -10z"/>
<path d="M1946 442 c-3 -5 1 -9 9 -9 8 0 12 4 9 9 -3 4 -7 8 -9 8 -2 0 -6 -4
-9 -8z"/>
<path d="M1273 395 c0 -8 4 -12 9 -9 5 3 6 10 3 15 -9 13 -12 11 -12 -6z"/>
<path d="M2135 181 c-3 -5 -2 -12 3 -15 5 -3 9 1 9 9 0 17 -3 19 -12 6z"/>
</g>
</svg>
